<?xml version="1.0" encoding="UTF-8" standalone="no"?>
<!-- Created with Inkscape (http://www.inkscape.org/) -->

<svg
   xmlns:dc="http://purl.org/dc/elements/1.1/"
   xmlns:cc="http://creativecommons.org/ns#"
   xmlns:rdf="http://www.w3.org/1999/02/22-rdf-syntax-ns#"
   xmlns:svg="http://www.w3.org/2000/svg"
   xmlns="http://www.w3.org/2000/svg"
   version="1.1"
   width="100%"
   height="100%"
   viewBox="0 0 100 106.15883"
   id="Capa_1"
   xml:space="preserve"><metadata
     id="metadata53"><rdf:RDF><cc:Work
         rdf:about=""><dc:format>image/svg+xml</dc:format><dc:type
           rdf:resource="http://purl.org/dc/dcmitype/StillImage" /><dc:title></dc:title></cc:Work></rdf:RDF></metadata><defs
     id="defs51" /><g
     transform="matrix(0.22369713,0,0,0.22369713,-3.0794147,0)"
     id="g3"
     style="fill:#ffffff;fill-opacity:1"><path
       d="m 255.204,102.3 c -0.606,-11.321 -12.176,-9.395 -23.465,-9.395 8.339,2.221 16.228,5.311 23.465,9.395 z"
       id="path5"
       style="fill:#ffffff;fill-opacity:1" /><path
       d="m 134.524,73.928 c -43.825,0 -63.997,55.471 -28.963,83.37 11.943,-31.89 35.718,-54.788 66.886,-63.826 -8.526,-11.787 -22.301,-19.544 -37.923,-19.544 z"
       id="path7"
       style="fill:#ffffff;fill-opacity:1" /><path
       d="m 43.987,148.617 c 1.786,5.731 4.1,11.229 6.849,16.438 L 36.44,179.459 c -3.866,3.866 -3.866,10.141 0,14.015 l 25.375,25.383 c 1.848,1.848 4.38,2.888 7.019,2.888 2.61,0 5.125,-1.04 7.005,-2.888 l 14.38,-14.404 c 2.158,1.142 4.55,1.842 6.785,2.827 0,-0.164 -0.016,-0.334 -0.016,-0.498 0,-11.771 1.352,-22.875 3.759,-33.302 C 83.385,162.306 71.8,142.91 71.8,120.765 c 0,-34.592 28.139,-62.739 62.723,-62.739 23.418,0 43.637,13.037 54.43,32.084 11.523,-1.429 22.347,-1.429 35.376,1.033 -1.676,-5.07 -3.648,-10.032 -6.118,-14.683 l 14.396,-14.411 c 1.878,-1.856 2.918,-4.38 2.918,-7.004 0,-2.625 -1.04,-5.148 -2.918,-7.004 L 207.246,22.674 c -1.94,-1.941 -4.472,-2.904 -7.003,-2.904 -2.532,0 -5.063,0.963 -6.989,2.904 L 178.812,37.085 C 173.595,34.321 168.113,32.007 162.368,30.26 V 9.9 c 0,-5.466 -4.411,-9.9 -9.893,-9.9 h -35.888 c -5.451,0 -9.909,4.434 -9.909,9.9 v 20.359 c -5.73,1.747 -11.213,4.061 -16.446,6.825 L 75.839,22.689 c -1.942,-1.941 -4.473,-2.904 -7.005,-2.904 -2.531,0 -5.077,0.963 -7.003,2.896 L 36.44,48.048 c -1.848,1.864 -2.888,4.379 -2.888,7.012 0,2.632 1.04,5.148 2.888,7.004 l 14.396,14.403 c -2.75,5.218 -5.063,10.708 -6.817,16.438 H 23.675 c -5.482,0 -9.909,4.441 -9.909,9.915 v 35.889 c 0,5.458 4.427,9.908 9.909,9.908 h 20.312 z"
       id="path9"
       style="fill:#ffffff;fill-opacity:1" /><path
       d="m 354.871,340.654 c 15.872,-8.705 26.773,-25.367 26.773,-44.703 0,-28.217 -22.967,-51.168 -51.184,-51.168 -9.923,0 -19.118,2.966 -26.975,7.873 -4.705,18.728 -12.113,36.642 -21.803,52.202 27.47,5.164 52.675,17.673 73.189,35.796 z"
       id="path11"
       style="fill:#ffffff;fill-opacity:1" /><path
       d="m 460.782,276.588 c 0,-5.909 -4.799,-10.693 -10.685,-10.693 H 428.14 c -1.896,-6.189 -4.411,-12.121 -7.393,-17.75 l 15.544,-15.544 c 2.02,-2.004 3.137,-4.721 3.137,-7.555 0,-2.835 -1.118,-5.553 -3.137,-7.563 l -27.363,-27.371 c -2.08,-2.09 -4.829,-3.138 -7.561,-3.138 -2.734,0 -5.467,1.048 -7.547,3.138 l -15.576,15.552 c -5.623,-2.982 -11.539,-5.481 -17.751,-7.369 v -21.958 c 0,-5.901 -4.768,-10.685 -10.669,-10.685 H 311.11 c -2.594,0 -4.877,1.04 -6.739,2.578 3.26,11.895 5.046,24.793 5.046,38.552 0,8.735 -0.682,17.604 -1.956,26.423 7.205,-2.656 14.876,-4.324 22.999,-4.324 36.99,0 67.086,30.089 67.086,67.07 0,23.637 -12.345,44.353 -30.872,56.303 13.48,14.784 24.195,32.324 31.168,51.976 1.148,0.396 2.344,0.684 3.54,0.684 2.733,0 5.467,-1.04 7.563,-3.13 l 27.379,-27.371 c 2.004,-2.004 3.106,-4.721 3.106,-7.555 0,-2.834 -1.102,-5.551 -3.106,-7.563 l -15.576,-15.552 c 2.982,-5.621 5.497,-11.555 7.393,-17.75 h 21.957 c 2.826,0 5.575,-1.118 7.563,-3.138 2.004,-1.996 3.138,-4.72 3.138,-7.555 l -0.017,-38.712 z"
       id="path13"
       style="fill:#ffffff;fill-opacity:1" /><path
       d="m 376.038,413.906 c -16.602,-48.848 -60.471,-82.445 -111.113,-87.018 -16.958,17.958 -37.954,29.351 -61.731,29.351 -23.759,0 -44.771,-11.392 -61.713,-29.351 -50.672,4.573 -94.543,38.17 -111.145,87.026 l -9.177,27.013 c -2.625,7.773 -1.368,16.338 3.416,23.007 4.783,6.671 12.486,10.631 20.685,10.631 h 315.853 c 8.215,0 15.918,-3.96 20.702,-10.631 4.767,-6.669 6.041,-15.234 3.4,-23.007 l -9.177,-27.021 z"
       id="path15"
       style="fill:#ffffff;fill-opacity:1" /><path
       d="m 120.842,206.782 c 0,60.589 36.883,125.603 82.352,125.603 45.487,0 82.368,-65.014 82.368,-125.603 10e-4,-125.594 -164.72,-125.843 -164.72,0 z"
       id="path17"
       style="fill:#ffffff;fill-opacity:1" /></g><g
     transform="translate(-13.766,-368.40617)"
     id="g19" /><g
     transform="translate(-13.766,-368.40617)"
     id="g21" /><g
     transform="translate(-13.766,-368.40617)"
     id="g23" /><g
     transform="translate(-13.766,-368.40617)"
     id="g25" /><g
     transform="translate(-13.766,-368.40617)"
     id="g27" /><g
     transform="translate(-13.766,-368.40617)"
     id="g29" /><g
     transform="translate(-13.766,-368.40617)"
     id="g31" /><g
     transform="translate(-13.766,-368.40617)"
     id="g33" /><g
     transform="translate(-13.766,-368.40617)"
     id="g35" /><g
     transform="translate(-13.766,-368.40617)"
     id="g37" /><g
     transform="translate(-13.766,-368.40617)"
     id="g39" /><g
     transform="translate(-13.766,-368.40617)"
     id="g41" /><g
     transform="translate(-13.766,-368.40617)"
     id="g43" /><g
     transform="translate(-13.766,-368.40617)"
     id="g45" /><g
     transform="translate(-13.766,-368.40617)"
     id="g47" /></svg>