<?xml version="1.0" encoding="UTF-8" standalone="no"?>
<!-- Generator: Adobe Illustrator 16.0.0, SVG Export Plug-In . SVG Version: 6.00 Build 0)  -->

<svg
   xmlns:dc="http://purl.org/dc/elements/1.1/"
   xmlns:cc="http://creativecommons.org/ns#"
   xmlns:rdf="http://www.w3.org/1999/02/22-rdf-syntax-ns#"
   xmlns:svg="http://www.w3.org/2000/svg"
   xmlns="http://www.w3.org/2000/svg"
   xmlns:sodipodi="http://sodipodi.sourceforge.net/DTD/sodipodi-0.dtd"
   xmlns:inkscape="http://www.inkscape.org/namespaces/inkscape"
   version="1.1"
   id="Capa_1"
   x="0px"
   y="0px"
   width="100"
   height="93.585098"
   viewBox="0 0 99.999999 93.585097"
   xml:space="preserve"
   inkscape:version="0.48.4 r9939"
   sodipodi:docname="lungs4.svg"><metadata
     id="metadata41"><rdf:RDF><cc:Work
         rdf:about=""><dc:format>image/svg+xml</dc:format><dc:type
           rdf:resource="http://purl.org/dc/dcmitype/StillImage" /><dc:title></dc:title></cc:Work></rdf:RDF></metadata><defs
     id="defs39" /><sodipodi:namedview
     pagecolor="#ffffff"
     bordercolor="#666666"
     borderopacity="1"
     objecttolerance="10"
     gridtolerance="10"
     guidetolerance="10"
     inkscape:pageopacity="0"
     inkscape:pageshadow="2"
     inkscape:window-width="1366"
     inkscape:window-height="713"
     id="namedview37"
     showgrid="false"
     inkscape:zoom="1.8490081"
     inkscape:cx="-86.128431"
     inkscape:cy="14.9305"
     inkscape:window-x="0"
     inkscape:window-y="30"
     inkscape:window-maximized="1"
     inkscape:current-layer="Capa_1"
     fit-margin-top="0"
     fit-margin-left="0"
     fit-margin-right="0"
     fit-margin-bottom="0" /><g
     id="g3"
     style="fill:#444444;fill-opacity:1"
     transform="matrix(3.1340243,0,0,3.1340243,-0.00367071,-3.2092409)"><path
       d="M 31.852,20.446 C 31.852,14.734 25.314,5.44 21.297,5.44 19.38,5.44 18.37,7.568 17.852,10.403 17.54,10.048 17.357,9.774 17.192,9.585 V 2.302 c 0,-0.706 -0.534,-1.278 -1.239,-1.278 -0.705,0 -1.239,0.572 -1.239,1.278 v 7.446 c -0.165,0.332 -0.373,0.636 -0.628,0.926 -0.509,-2.922 -1.512,-5.135 -3.467,-5.135 -4.018,0 -10.56,9.294 -10.56,15.004 0,5.713 -0.763,10.342 3.254,10.342 4.016,0 11.288,-4.629 11.288,-10.342 0,-2.015 -0.001,-4.475 -0.173,-6.815 0.617,-0.429 1.184,-0.919 1.661,-1.486 0.373,0.413 0.836,0.871 1.395,1.339 -0.175,2.357 -0.175,4.835 -0.175,6.865 0,5.712 7.272,10.344 11.29,10.344 4.011,0 3.253,-4.632 3.253,-10.344 z"
       id="path5"
       style="fill:#444444;fill-opacity:1"
       inkscape:connector-curvature="0" /></g><g
     id="g7"
     transform="translate(-0.00117125,62.7001)" /><g
     id="g9"
     transform="translate(-0.00117125,62.7001)" /><g
     id="g11"
     transform="translate(-0.00117125,62.7001)" /><g
     id="g13"
     transform="translate(-0.00117125,62.7001)" /><g
     id="g15"
     transform="translate(-0.00117125,62.7001)" /><g
     id="g17"
     transform="translate(-0.00117125,62.7001)" /><g
     id="g19"
     transform="translate(-0.00117125,62.7001)" /><g
     id="g21"
     transform="translate(-0.00117125,62.7001)" /><g
     id="g23"
     transform="translate(-0.00117125,62.7001)" /><g
     id="g25"
     transform="translate(-0.00117125,62.7001)" /><g
     id="g27"
     transform="translate(-0.00117125,62.7001)" /><g
     id="g29"
     transform="translate(-0.00117125,62.7001)" /><g
     id="g31"
     transform="translate(-0.00117125,62.7001)" /><g
     id="g33"
     transform="translate(-0.00117125,62.7001)" /><g
     id="g35"
     transform="translate(-0.00117125,62.7001)" /></svg>