<?xml version="1.0" encoding="UTF-8" standalone="no"?>
<!-- Created with Inkscape (http://www.inkscape.org/) -->

<svg
   xmlns:dc="http://purl.org/dc/elements/1.1/"
   xmlns:cc="http://creativecommons.org/ns#"
   xmlns:rdf="http://www.w3.org/1999/02/22-rdf-syntax-ns#"
   xmlns:svg="http://www.w3.org/2000/svg"
   xmlns="http://www.w3.org/2000/svg"
   version="1.1"
   width="100%"
   height="100%"
   viewBox="0 0 100 133.93935"
   id="Capa_1"
   xml:space="preserve"><metadata
     id="metadata44"><rdf:RDF><cc:Work
         rdf:about=""><dc:format>image/svg+xml</dc:format><dc:type
           rdf:resource="http://purl.org/dc/dcmitype/StillImage" /><dc:title></dc:title></cc:Work></rdf:RDF></metadata><defs
     id="defs42" /><g
     id="layer1"><rect
       width="40.275936"
       height="40.09203"
       x="29.425339"
       y="63.686352"
       id="rect3861"
       style="fill:#222222;fill-opacity:1;stroke:none" /></g><g
     transform="matrix(0.3857489,0,0,0.3857489,-16.969866,0)"
     id="g3"
     style="fill:#ffffff;fill-opacity:1"><g
       id="Layer_5_28_"
       style="fill:#ffffff;fill-opacity:1"><g
         id="g6"
         style="fill:#ffffff;fill-opacity:1"><path
           d="m 292.914,113.311 -47.97,-22.824 c -1.045,-0.498 -2.329,-1.101 -2.329,-3.688 0,0 0,-18.528 0,-24.705 0,-2.5 2.993,-2.662 2.993,-2.662 16.385,0 27.609,-13.33 27.609,-29.716 C 273.217,13.33 259.887,0 243.502,0 H 103.717 C 87.332,0 74.002,13.33 74.002,29.716 c 0,16.386 11.093,29.716 27.478,29.716 0,0 3.124,-0.088 3.124,2.787 0,6.146 0,24.58 0,24.58 0,2.754 -1.284,3.189 -2.328,3.688 l -47.971,22.824 c -5.879,2.797 -10.313,5.075 -10.313,16.328 v 188.316 c 0,10.419 12.85,17.398 41.664,22.629 23.56,4.278 54.795,6.635 87.954,6.635 33.159,0 64.395,-2.356 87.954,-6.635 28.814,-5.23 41.664,-12.21 41.664,-22.629 V 273.851 159.958 129.64 c 0,-11.921 -4.434,-13.532 -10.314,-16.329 z m -9.722,46.647 c -43.878,0 -175.513,0 -175.513,0 -9.925,0 -18,8.075 -18,18 v 77.895 c 0,9.926 8.075,18 18,18 0,0 128.947,0 171.93,0 9.75,0 9.62,6.618 9.62,6.618 v 36.605 c -1.329,1.257 -8.095,6.216 -35.231,10.603 -22.101,3.572 -50.649,5.541 -80.386,5.541 -29.737,0 -58.286,-1.969 -80.386,-5.541 C 66.09,323.292 59.324,318.333 57.995,317.076 V 129.639 c 0,-2.586 1.284,-3.189 2.328,-3.686 l 47.971,-22.824 c 5.879,-2.799 10.313,-3.41 10.313,-16.33 0,0 0,-17.778 0,-23.705 0,-3.75 3.503,-3.662 3.503,-3.662 h 103.25 c 0,0 3.258,-0.213 3.258,3.662 0,5.927 0,23.705 0,23.705 0,13.254 4.434,13.531 10.313,16.33 l 47.97,22.824 c 1.044,0.496 2.329,1.1 2.329,3.686 v 25.081 c -0.002,0 0.962,5.238 -6.038,5.238 z m -124.734,69.347 h -14.432 c -6.874,0 -12.446,-5.572 -12.446,-12.446 0,-6.874 5.572,-12.446 12.446,-12.446 h 14.043 c 0,0 3.094,0.144 3.094,-2.871 0,-3.566 0,-14.267 0,-14.267 0,-6.874 5.572,-12.446 12.446,-12.446 6.874,0 12.446,5.572 12.446,12.446 0,0 0,11.429 0,15.239 0,2.042 2.643,1.898 2.643,1.898 h 14.495 c 6.874,0 12.446,5.572 12.446,12.446 0,6.874 -5.572,12.446 -12.446,12.446 h -14.008 c 0,0 -3.129,0.046 -3.129,2.478 0,3.665 0,14.661 0,14.661 0,6.874 -5.572,12.446 -12.446,12.446 -6.874,0 -12.446,-5.572 -12.446,-12.446 0,0 0,-10.851 0,-14.467 0,-2.916 -2.706,-2.671 -2.706,-2.671 z"
           id="path8"
           style="fill:#ffffff;fill-opacity:1" /></g></g></g><g
     transform="translate(-43.992,-213.27965)"
     id="g10" /><g
     transform="translate(-43.992,-213.27965)"
     id="g12" /><g
     transform="translate(-43.992,-213.27965)"
     id="g14" /><g
     transform="translate(-43.992,-213.27965)"
     id="g16" /><g
     transform="translate(-43.992,-213.27965)"
     id="g18" /><g
     transform="translate(-43.992,-213.27965)"
     id="g20" /><g
     transform="translate(-43.992,-213.27965)"
     id="g22" /><g
     transform="translate(-43.992,-213.27965)"
     id="g24" /><g
     transform="translate(-43.992,-213.27965)"
     id="g26" /><g
     transform="translate(-43.992,-213.27965)"
     id="g28" /><g
     transform="translate(-43.992,-213.27965)"
     id="g30" /><g
     transform="translate(-43.992,-213.27965)"
     id="g32" /><g
     transform="translate(-43.992,-213.27965)"
     id="g34" /><g
     transform="translate(-43.992,-213.27965)"
     id="g36" /><g
     transform="translate(-43.992,-213.27965)"
     id="g38" /></svg>